<mxfile host="app.diagrams.net" modified="2021-01-12T11:22:24.831Z" agent="5.0 (X11; Linux x86_64) AppleWebKit/537.36 (KHTML, like Gecko) Chrome/87.0.4280.88 Safari/537.36" etag="nKeyg9bBpZskxqAaJRHj" version="14.1.9" type="github">
  <diagram id="IK-KaruGwETLcyupu5-G" name="Page-1">
    <mxGraphModel dx="1595" dy="806" grid="1" gridSize="10" guides="1" tooltips="1" connect="1" arrows="1" fold="1" page="1" pageScale="1" pageWidth="850" pageHeight="1100" math="0" shadow="0">
      <root>
        <mxCell id="0" />
        <mxCell id="1" parent="0" />
        <mxCell id="uEJJgB1L5c5Y83ebcAIK-1" value="Relational Database&lt;br&gt;(MySQL)" style="shape=cylinder3;whiteSpace=wrap;html=1;boundedLbl=1;backgroundOutline=1;size=15;" vertex="1" parent="1">
          <mxGeometry x="119" y="150" width="220" height="100" as="geometry" />
        </mxCell>
        <mxCell id="uEJJgB1L5c5Y83ebcAIK-3" value="" style="rounded=1;whiteSpace=wrap;html=1;" vertex="1" parent="1">
          <mxGeometry x="120" y="300" width="220" height="100" as="geometry" />
        </mxCell>
        <mxCell id="uEJJgB1L5c5Y83ebcAIK-4" value="" style="endArrow=classic;startArrow=classic;html=1;exitX=0.5;exitY=0;exitDx=0;exitDy=0;entryX=0.5;entryY=1;entryDx=0;entryDy=0;entryPerimeter=0;" edge="1" parent="1" source="uEJJgB1L5c5Y83ebcAIK-3" target="uEJJgB1L5c5Y83ebcAIK-1">
          <mxGeometry width="50" height="50" relative="1" as="geometry">
            <mxPoint x="400" y="440" as="sourcePoint" />
            <mxPoint x="450" y="390" as="targetPoint" />
          </mxGeometry>
        </mxCell>
        <mxCell id="uEJJgB1L5c5Y83ebcAIK-5" value="NoSQL Database&lt;br&gt;(MongoDB)" style="shape=cylinder3;whiteSpace=wrap;html=1;boundedLbl=1;backgroundOutline=1;size=15;" vertex="1" parent="1">
          <mxGeometry x="520" y="150" width="220" height="100" as="geometry" />
        </mxCell>
        <mxCell id="uEJJgB1L5c5Y83ebcAIK-6" value="" style="rounded=1;whiteSpace=wrap;html=1;" vertex="1" parent="1">
          <mxGeometry x="521" y="300" width="220" height="100" as="geometry" />
        </mxCell>
        <mxCell id="uEJJgB1L5c5Y83ebcAIK-7" value="" style="endArrow=classic;startArrow=classic;html=1;exitX=0.5;exitY=0;exitDx=0;exitDy=0;entryX=0.5;entryY=1;entryDx=0;entryDy=0;entryPerimeter=0;" edge="1" parent="1" source="uEJJgB1L5c5Y83ebcAIK-6" target="uEJJgB1L5c5Y83ebcAIK-5">
          <mxGeometry width="50" height="50" relative="1" as="geometry">
            <mxPoint x="801" y="440" as="sourcePoint" />
            <mxPoint x="851" y="390" as="targetPoint" />
          </mxGeometry>
        </mxCell>
      </root>
    </mxGraphModel>
  </diagram>
</mxfile>
